<?xml version="1.0" standalone="no"?>
<!DOCTYPE svg PUBLIC "-//W3C//DTD SVG 20010904//EN"
 "http://www.w3.org/TR/2001/REC-SVG-20010904/DTD/svg10.dtd">
<svg version="1.0" xmlns="http://www.w3.org/2000/svg"
 width="360.000000pt" height="360.000000pt" viewBox="0 0 360.000000 360.000000"
 preserveAspectRatio="xMidYMid meet">
<metadata>
Created by potrace 1.11, written by Peter Selinger 2001-2013
</metadata>
<g transform="translate(0.000000,360.000000) scale(0.100000,-0.100000)"
fill="#000000" stroke="none">
<path d="M316 3348 c-19 -29 -54 -73 -76 -97 l-42 -44 75 -71 c41 -39 147
-141 236 -226 242 -232 315 -300 321 -300 3 1 106 81 230 180 l225 179 72
-112 c39 -62 97 -152 129 -202 31 -49 71 -112 89 -140 82 -126 143 -223 160
-252 22 -37 34 -41 56 -15 8 9 38 36 65 59 28 24 62 53 76 65 13 13 51 46 84
74 32 28 79 69 104 90 25 22 59 51 75 66 75 66 100 88 105 88 3 0 19 -23 35
-50 33 -56 245 -396 287 -463 15 -23 33 -53 40 -67 7 -14 15 -27 18 -30 3 -3
23 -34 45 -70 21 -36 56 -92 76 -124 l37 -59 88 134 c90 138 212 326 269 414
18 28 89 136 157 241 l125 190 -64 38 c-35 21 -63 42 -63 46 0 5 -20 19 -45
31 -36 18 -47 20 -60 9 -8 -7 -15 -18 -15 -24 0 -7 -6 -18 -12 -24 -7 -7 -29
-42 -48 -77 -33 -60 -105 -178 -143 -234 -9 -14 -20 -34 -23 -43 -4 -10 -10
-18 -14 -18 -4 0 -22 -22 -39 -49 -17 -27 -40 -59 -51 -71 -11 -13 -20 -26
-20 -29 0 -3 -16 -24 -36 -45 l-36 -39 -24 48 c-14 26 -39 71 -57 99 -47 74
-55 87 -73 123 -9 18 -22 37 -30 44 -8 6 -14 15 -14 19 0 4 -26 49 -57 101
-31 52 -64 108 -72 125 -33 65 -155 244 -166 244 -7 0 -35 -28 -64 -62 -69
-82 -241 -257 -311 -317 -30 -25 -64 -56 -76 -69 -20 -20 -54 -22 -54 -3 0 8
-113 197 -148 248 -34 50 -97 148 -101 156 -2 5 -28 43 -57 85 -30 43 -75 107
-99 143 -24 36 -54 74 -65 84 -20 18 -21 18 -67 -26 -60 -57 -65 -61 -120
-106 -26 -21 -56 -47 -67 -58 -33 -31 -135 -117 -159 -134 -12 -8 -38 -30 -57
-48 l-35 -33 -25 28 c-14 15 -50 56 -80 91 -79 90 -152 162 -239 237 -114 98
-122 104 -131 104 -4 0 -24 -24 -44 -52z"/>
<path d="M314 2793 c-21 -26 -58 -65 -81 -87 l-42 -41 65 -70 c37 -39 101
-106 143 -151 42 -44 137 -145 211 -224 215 -229 218 -232 232 -224 7 4 109
77 227 162 117 84 214 152 216 150 1 -2 107 -178 234 -393 128 -214 236 -394
241 -399 7 -7 429 294 478 341 46 45 44 47 219 -267 11 -19 31 -55 45 -80 104
-187 263 -469 275 -488 16 -26 12 -28 63 35 19 23 99 121 122 148 28 33 337
413 423 519 l79 98 -36 32 c-94 81 -131 112 -143 119 -20 11 -39 0 -60 -36
-34 -59 -89 -142 -97 -145 -5 -2 -8 -8 -8 -13 0 -30 -278 -389 -299 -386 -8 1
-26 25 -40 53 -14 28 -32 58 -40 67 -7 10 -10 17 -6 17 5 0 1 8 -7 18 -8 9
-39 62 -68 117 -30 55 -87 158 -127 228 -40 71 -71 132 -69 136 3 4 -4 17 -14
29 -19 20 -49 66 -70 107 -25 49 -47 80 -57 80 -6 0 -51 -37 -100 -82 -48 -44
-106 -96 -127 -115 -22 -18 -56 -47 -75 -64 -63 -54 -174 -134 -185 -134 -7 0
-22 19 -34 43 -67 131 -232 414 -332 567 -26 41 -66 103 -87 137 -41 67 -58
75 -95 44 -27 -23 -148 -112 -215 -159 -27 -18 -89 -62 -140 -98 -51 -35 -94
-64 -97 -64 -2 0 -13 15 -25 33 -11 17 -28 41 -38 52 -10 11 -31 38 -47 60
-17 22 -32 42 -35 45 -4 3 -33 37 -65 75 -71 84 -246 255 -262 255 -6 0 -28
-21 -50 -47z"/>
<path d="M294 2218 c-75 -79 -120 -118 -128 -111 -3 4 -6 4 -6 0 0 -3 12 -19
26 -34 14 -15 138 -165 274 -333 137 -168 262 -320 277 -339 l29 -34 169 88
c94 48 203 105 242 126 l73 38 146 -247 c210 -354 264 -445 275 -462 5 -8 12
-23 15 -32 4 -10 10 -18 15 -18 5 0 9 -4 9 -10 0 -18 55 -100 67 -100 6 0 44
22 85 48 40 27 134 86 208 133 74 46 137 86 140 90 3 3 15 11 28 18 22 12 27
1 269 -489 136 -275 250 -500 253 -499 3 0 82 90 175 200 94 110 177 208 185
217 8 9 67 78 130 152 142 167 162 189 178 206 11 12 4 23 -45 70 -82 79 -123
114 -131 114 -4 0 -20 -21 -37 -48 -25 -40 -79 -117 -122 -172 -50 -65 -139
-176 -143 -180 -4 -3 -31 -33 -62 -66 -31 -34 -60 -59 -66 -55 -5 3 -49 85
-98 181 -48 96 -91 177 -96 178 -4 2 -8 9 -8 16 0 6 -14 38 -31 71 -17 33 -69
132 -115 220 -128 248 -138 265 -151 265 -12 0 -106 -76 -111 -91 -2 -5 -10
-9 -18 -9 -8 0 -14 -4 -14 -8 0 -16 -335 -241 -344 -231 -2 2 -19 36 -38 74
-38 77 -107 207 -143 270 -12 22 -36 65 -52 95 -40 74 -57 104 -63 110 -3 3
-12 19 -20 35 -8 17 -32 59 -53 95 -22 36 -50 83 -63 105 -14 22 -32 55 -41
73 -9 17 -22 32 -29 32 -14 0 -168 -91 -172 -102 -2 -4 -8 -8 -13 -8 -5 0 -52
-25 -104 -55 -53 -30 -98 -55 -102 -55 -3 0 -27 -13 -54 -30 l-48 -29 -64 97
c-35 53 -70 104 -78 112 -8 9 -25 31 -39 50 -49 70 -139 181 -199 244 -25 26
-54 57 -63 67 -10 10 -24 19 -31 19 -7 0 -40 -28 -73 -62z"/>
</g>
</svg>
