<?xml version="1.0" standalone="no"?>
<!DOCTYPE svg PUBLIC "-//W3C//DTD SVG 20010904//EN"
 "http://www.w3.org/TR/2001/REC-SVG-20010904/DTD/svg10.dtd">
<svg version="1.0" xmlns="http://www.w3.org/2000/svg"
 width="451.000000pt" height="451.000000pt" viewBox="0 0 451.000000 451.000000"
 preserveAspectRatio="xMidYMid meet">
<metadata>
Created by potrace 1.11, written by Peter Selinger 2001-2013
</metadata>
<g transform="translate(0.000000,451.000000) scale(0.100000,-0.100000)"
fill="#000000" stroke="none">
<path d="M387 4188 c-25 -35 -66 -83 -91 -108 -25 -24 -46 -51 -46 -60 0 -16
762 -752 784 -758 6 -1 136 97 288 218 153 121 281 220 285 220 5 -1 138 -205
297 -455 180 -282 296 -455 305 -455 9 0 164 129 344 286 181 157 330 284 331
282 1 -2 150 -243 331 -535 181 -293 334 -533 341 -533 14 0 786 1183 791
1214 3 17 -12 32 -78 76 -128 87 -152 100 -182 100 -22 0 -31 -7 -43 -32 -8
-18 -28 -54 -43 -80 -16 -25 -41 -68 -56 -95 -15 -26 -40 -67 -56 -91 -16 -24
-29 -45 -29 -47 0 -3 -16 -27 -35 -54 -19 -26 -35 -51 -35 -54 0 -7 -19 -34
-115 -168 -33 -46 -67 -95 -76 -109 -9 -14 -30 -40 -48 -59 l-33 -35 -47 90
c-26 50 -57 103 -68 120 -11 16 -49 78 -84 137 -35 59 -78 131 -96 160 -18 29
-41 68 -53 87 -11 19 -29 49 -40 65 -10 17 -19 38 -19 47 -1 9 -22 46 -49 81
-26 35 -68 98 -95 140 -31 50 -54 77 -66 77 -10 0 -54 -42 -104 -97 -74 -85
-287 -299 -443 -445 -48 -45 -51 -47 -72 -32 -12 8 -22 20 -22 27 0 19 -102
183 -280 452 -263 397 -298 445 -330 445 -11 0 -27 -11 -36 -25 -9 -13 -55
-57 -102 -97 -48 -40 -121 -102 -162 -139 -41 -36 -120 -103 -175 -149 -55
-45 -104 -89 -108 -96 -15 -26 -34 -14 -78 49 -55 79 -352 376 -444 445 -38
28 -79 52 -91 52 -14 0 -36 -20 -67 -62z"/>
<path d="M343 3455 c-57 -57 -103 -111 -103 -118 0 -20 778 -841 800 -845 11
-2 126 75 290 193 150 108 276 193 280 188 4 -4 139 -230 300 -500 161 -271
296 -493 301 -493 5 0 149 104 320 231 171 127 317 233 323 235 7 3 139 -221
321 -546 215 -382 315 -549 325 -547 20 3 839 1007 840 1028 0 29 -215 198
-253 199 -10 0 -30 -21 -49 -53 -66 -107 -262 -394 -320 -467 -32 -41 -84
-108 -116 -147 -31 -40 -62 -73 -68 -73 -5 0 -27 33 -48 73 -39 73 -56 106
-115 212 -19 33 -47 85 -63 115 -28 51 -97 175 -118 210 -72 125 -93 167 -94
184 -1 12 -22 53 -49 91 -26 39 -65 98 -87 133 -24 37 -46 62 -55 60 -7 -2
-83 -67 -167 -145 -170 -157 -416 -354 -436 -351 -7 2 -19 14 -27 28 -138 253
-214 387 -247 436 -15 23 -28 45 -28 48 0 21 -317 506 -331 506 -11 0 -51 -20
-59 -29 -10 -12 -128 -98 -285 -208 -88 -61 -183 -130 -212 -152 -28 -23 -56
-41 -62 -41 -6 0 -17 13 -26 29 -42 81 -359 450 -461 537 -32 27 -66 57 -76
67 -10 9 -24 17 -30 17 -7 -1 -59 -48 -115 -105z"/>
<path d="M385 2799 c-32 -33 -85 -81 -117 -107 -40 -31 -58 -52 -56 -64 4 -25
729 -917 746 -918 8 0 144 68 303 150 160 83 294 150 298 150 5 0 152 -243
327 -540 216 -366 324 -540 336 -540 9 0 147 83 307 185 159 102 293 185 296
185 3 0 143 -279 312 -620 168 -341 312 -620 319 -620 15 0 854 975 854 993 0
7 -43 53 -96 102 -95 89 -139 123 -147 115 -3 -3 -33 -48 -68 -100 -96 -143
-245 -334 -363 -463 -39 -43 -74 -83 -77 -89 -11 -17 -38 -1 -50 29 -11 30
-126 261 -228 458 -238 461 -297 574 -316 605 -12 19 -24 43 -28 53 -14 38
-46 22 -163 -83 -91 -81 -441 -320 -468 -320 -6 0 -22 26 -36 58 -13 31 -41
86 -61 122 -19 36 -62 115 -94 175 -32 61 -67 126 -77 145 -36 68 -93 168
-104 181 -6 8 -28 48 -49 89 -21 41 -55 100 -74 130 -20 30 -41 65 -48 77 -45
85 -80 133 -95 133 -10 0 -58 -24 -106 -54 -75 -47 -125 -76 -322 -189 -19
-11 -53 -29 -75 -40 -22 -11 -57 -30 -77 -43 l-38 -24 -14 28 c-42 81 -227
337 -355 492 -78 93 -205 220 -222 220 -8 0 -42 -27 -74 -61z"/>
</g>
</svg>
